<svg id="Layer_1" data-name="Layer 1" xmlns="http://www.w3.org/2000/svg" viewBox="0 0 353.95 841.89"><defs><style>.cls-1{fill:#544668;}.cls-2{opacity:0.48;}.cls-3{fill:#a7a2b2;}</style></defs><rect class="cls-1" x="-131.26" y="243.97" width="841.89" height="353.95" transform="translate(-243.97 710.63) rotate(-90)"/><g id="Bubbles" class="cls-2"><circle class="cls-3" cx="151.67" cy="786.31" r="17.03"/><circle class="cls-3" cx="213.76" cy="781.25" r="6.58"/><circle class="cls-3" cx="218.65" cy="640.73" r="8.52"/><circle class="cls-3" cx="186.48" cy="696.03" r="8.52"/><circle class="cls-3" cx="171.69" cy="579.68" r="17.03"/><circle class="cls-3" cx="223.6" cy="537.89" r="8.52"/><circle class="cls-3" cx="198.74" cy="489.02" r="8.52"/><circle class="cls-3" cx="170.88" cy="434.4" r="8.52"/><circle class="cls-3" cx="190.65" cy="334.94" r="17.03"/><circle class="cls-3" cx="221.51" cy="318.96" r="7.42"/><circle class="cls-3" cx="237.13" cy="299.15" r="3.71"/><circle class="cls-3" cx="227.13" cy="493.98" r="3.71"/><circle class="cls-3" cx="231.9" cy="577.65" r="3.71"/><circle class="cls-3" cx="199.1" cy="624.69" r="3.71"/><circle class="cls-3" cx="214.26" cy="689.52" r="3.71"/><circle class="cls-3" cx="166.87" cy="489.94" r="3.71"/><circle class="cls-3" cx="192.65" cy="446.75" r="3.71"/><circle class="cls-3" cx="162.72" cy="369.35" r="3.71"/><circle class="cls-3" cx="207.49" cy="369.6" r="3.71"/><circle class="cls-3" cx="227.51" cy="424.76" r="11.8"/><circle class="cls-3" cx="211.82" cy="286.78" r="8.52"/><circle class="cls-3" cx="164.85" cy="225.74" r="17.03"/><circle class="cls-3" cx="216.77" cy="183.95" r="8.52"/><circle class="cls-3" cx="191.91" cy="135.08" r="8.52"/><circle class="cls-3" cx="164.04" cy="80.46" r="8.52"/><circle class="cls-3" cx="220.29" cy="140.04" r="3.71"/><circle class="cls-3" cx="225.06" cy="223.7" r="3.71"/><circle class="cls-3" cx="192.26" cy="270.74" r="3.71"/><circle class="cls-3" cx="160.03" cy="136" r="3.71"/><circle class="cls-3" cx="185.81" cy="92.8" r="3.71"/><circle class="cls-3" cx="155.88" cy="15.41" r="3.71"/><circle class="cls-3" cx="200.65" cy="15.65" r="3.71"/><circle class="cls-3" cx="220.67" cy="70.82" r="11.8"/></g><g id="Bubbles-2" data-name="Bubbles" class="cls-2"><circle class="cls-3" cx="24.61" cy="808.92" r="17.03"/><circle class="cls-3" cx="86.69" cy="803.86" r="6.58"/><circle class="cls-3" cx="91.59" cy="663.34" r="8.52"/><circle class="cls-3" cx="59.42" cy="718.64" r="8.52"/><circle class="cls-3" cx="44.62" cy="602.29" r="17.03"/><circle class="cls-3" cx="96.54" cy="560.5" r="8.52"/><circle class="cls-3" cx="71.68" cy="511.63" r="8.52"/><circle class="cls-3" cx="43.81" cy="457.02" r="8.52"/><circle class="cls-3" cx="63.58" cy="357.55" r="17.03"/><circle class="cls-3" cx="94.44" cy="341.57" r="7.42"/><circle class="cls-3" cx="110.07" cy="321.76" r="3.71"/><circle class="cls-3" cx="100.06" cy="516.6" r="3.71"/><circle class="cls-3" cx="104.83" cy="600.26" r="3.71"/><circle class="cls-3" cx="72.03" cy="647.3" r="3.71"/><circle class="cls-3" cx="87.19" cy="712.13" r="3.71"/><circle class="cls-3" cx="39.8" cy="512.56" r="3.71"/><circle class="cls-3" cx="65.58" cy="469.36" r="3.71"/><circle class="cls-3" cx="35.65" cy="391.96" r="3.71"/><circle class="cls-3" cx="80.42" cy="392.21" r="3.71"/><circle class="cls-3" cx="100.44" cy="447.38" r="11.8"/><circle class="cls-3" cx="84.75" cy="309.39" r="8.52"/><circle class="cls-3" cx="37.79" cy="248.35" r="17.03"/><circle class="cls-3" cx="89.7" cy="206.56" r="8.52"/><circle class="cls-3" cx="64.84" cy="157.69" r="8.52"/><circle class="cls-3" cx="36.98" cy="103.07" r="8.52"/><circle class="cls-3" cx="93.23" cy="162.65" r="3.71"/><circle class="cls-3" cx="98" cy="246.32" r="3.71"/><circle class="cls-3" cx="65.2" cy="293.35" r="3.71"/><circle class="cls-3" cx="32.97" cy="158.61" r="3.71"/><circle class="cls-3" cx="58.75" cy="115.42" r="3.71"/><circle class="cls-3" cx="28.82" cy="38.02" r="3.71"/><circle class="cls-3" cx="73.59" cy="38.26" r="3.71"/><circle class="cls-3" cx="93.61" cy="93.43" r="11.8"/></g><g id="Bubbles-3" data-name="Bubbles" class="cls-2"><circle class="cls-3" cx="253.76" cy="52.34" r="17.03"/><circle class="cls-3" cx="315.84" cy="57.39" r="6.58"/><circle class="cls-3" cx="320.74" cy="197.92" r="8.52"/><circle class="cls-3" cx="288.57" cy="142.62" r="8.52"/><circle class="cls-3" cx="273.78" cy="258.96" r="17.03"/><circle class="cls-3" cx="325.69" cy="300.75" r="8.52"/><circle class="cls-3" cx="300.83" cy="349.62" r="8.52"/><circle class="cls-3" cx="272.97" cy="404.24" r="8.52"/><circle class="cls-3" cx="292.74" cy="503.71" r="17.03"/><circle class="cls-3" cx="323.6" cy="519.69" r="7.42"/><circle class="cls-3" cx="339.22" cy="539.5" r="3.71"/><circle class="cls-3" cx="329.22" cy="344.66" r="3.71"/><circle class="cls-3" cx="333.99" cy="261" r="3.71"/><circle class="cls-3" cx="301.19" cy="213.96" r="3.71"/><circle class="cls-3" cx="316.35" cy="149.12" r="3.71"/><circle class="cls-3" cx="268.96" cy="348.7" r="3.71"/><circle class="cls-3" cx="294.74" cy="391.9" r="3.71"/><circle class="cls-3" cx="264.81" cy="469.29" r="3.71"/><circle class="cls-3" cx="309.58" cy="469.05" r="3.71"/><circle class="cls-3" cx="329.6" cy="413.88" r="11.8"/><circle class="cls-3" cx="313.91" cy="551.86" r="8.52"/><circle class="cls-3" cx="266.94" cy="612.91" r="17.03"/><circle class="cls-3" cx="318.85" cy="654.7" r="8.52"/><circle class="cls-3" cx="294" cy="703.57" r="8.52"/><circle class="cls-3" cx="266.13" cy="758.19" r="8.52"/><circle class="cls-3" cx="322.38" cy="698.61" r="3.71"/><circle class="cls-3" cx="327.15" cy="614.94" r="3.71"/><circle class="cls-3" cx="294.35" cy="567.91" r="3.71"/><circle class="cls-3" cx="262.12" cy="702.65" r="3.71"/><circle class="cls-3" cx="287.9" cy="745.84" r="3.71"/><circle class="cls-3" cx="257.97" cy="823.24" r="3.71"/><circle class="cls-3" cx="302.74" cy="822.99" r="3.71"/><circle class="cls-3" cx="322.76" cy="767.83" r="11.8"/></g></svg>