<svg id="Layer_1" data-name="Layer 1" xmlns="http://www.w3.org/2000/svg" viewBox="0 0 508.42 190.78"><defs><style>.cls-1{fill:#3d276a;}.cls-2{fill:#1d1236;}.cls-3{fill:#544668;}.cls-4{opacity:0.48;}.cls-5{fill:#a7a2b2;}</style></defs><path class="cls-1" d="M539.51,309l-3.08,28.67-30-.17h0l-6.57,0L421.17,337h-.25l-64.22-.35-5.91,0-56.88-.31-11.18-.06-59-.32h-2.54l-185.71-1a0,0,0,0,1,0,0l.2-35.49h0l.17-31.73a0,0,0,0,1,0,0l34.29-18a4.42,4.42,0,0,1,6,2C93,287,118.16,279,147.75,247.87a.06.06,0,0,1,.09,0c15.65,38.36,40.86,35.71,74.56-3.4a0,0,0,0,1,.07,0c20.91,35.91,42.63,33.32,65.13-7.19a0,0,0,0,1,.08,0c23.81,42.51,45.62,49,64.57,3.77,21.48,39.62,43.83,44.11,67.22,6,14.76,28.85,27.5,32.28,39.78,29.8,16.75-2.08,30.28-15.66,42.22-34.94,9.94,22.45,22.13,30.83,35,35.34Z" transform="translate(-34.36 -237.28)"/><path class="cls-2" d="M541,369.88l-4.61,0-501.2-2.73.05-9.89.13-22.37.19-35.49h0l33.71-17.7a5.37,5.37,0,0,1,7.31,2.42c17,34.72,42.19,26.45,71.77-4.65h0c15.76,38.72,41.16,36.05,75.14-3.4,21.08,36.24,43,33.62,65.64-7.25,24,42.85,46,49.45,65.05,3.89h0c21.63,39.86,44.12,44.37,67.68,6,14.85,29,27.68,32.5,40,30,16.87-2.09,30.5-15.76,42.52-35.18,9.15,20.69,20.22,29.51,31.93,34.33,1,.43,2.05.82,3.08,1.18Z" transform="translate(-34.36 -237.28)"/><path class="cls-3" d="M541,367.93c-13.7-4.38-26.81-12.44-37.37-36.31C491.6,351,478,364.71,461.1,366.8c-12.36,2.49-25.19-1-40-30h0c-23.55,38.41-46.05,33.89-67.68-6h0c-19.09,45.58-41.07,39-65.05-3.87h0c-22.68,40.87-44.56,43.49-65.64,7.25h0c-34,39.45-59.38,42.12-75.14,3.4h0c-30.94,32.53-57.1,40.08-74.06-.41L34.73,357.53l-.37,67.75,508.41,2.77Z" transform="translate(-34.36 -237.28)"/><g id="Bubbles" class="cls-4"><circle class="cls-5" cx="28.6" cy="134.31" r="10.32"/><circle class="cls-5" cx="31.66" cy="171.93" r="3.98"/><circle class="cls-5" cx="116.81" cy="174.89" r="5.16"/><circle class="cls-5" cx="83.3" cy="155.4" r="5.16"/><circle class="cls-5" cx="153.8" cy="146.44" r="10.32"/><circle class="cls-5" cx="179.12" cy="177.89" r="5.16"/><circle class="cls-5" cx="208.73" cy="162.83" r="5.16"/><circle class="cls-5" cx="241.83" cy="145.95" r="5.16"/><circle class="cls-5" cx="302.1" cy="157.92" r="10.32"/><circle class="cls-5" cx="311.78" cy="176.62" r="4.5"/><circle class="cls-5" cx="323.78" cy="186.09" r="2.25"/><circle class="cls-5" cx="205.73" cy="180.03" r="2.25"/><circle class="cls-5" cx="155.03" cy="182.92" r="2.25"/><circle class="cls-5" cx="126.53" cy="163.04" r="2.25"/><circle class="cls-5" cx="87.24" cy="172.23" r="2.25"/><circle class="cls-5" cx="208.17" cy="143.51" r="2.25"/><circle class="cls-5" cx="234.35" cy="159.14" r="2.25"/><circle class="cls-5" cx="281.24" cy="141" r="2.25"/><circle class="cls-5" cx="281.1" cy="168.13" r="2.25"/><circle class="cls-5" cx="247.67" cy="180.26" r="7.15"/><circle class="cls-5" cx="331.28" cy="170.75" r="5.16"/><circle class="cls-5" cx="368.27" cy="142.29" r="10.32"/><circle class="cls-5" cx="393.59" cy="173.75" r="5.16"/><circle class="cls-5" cx="423.2" cy="158.69" r="5.16"/><circle class="cls-5" cx="456.29" cy="141.8" r="5.16"/><circle class="cls-5" cx="420.19" cy="175.89" r="2.25"/><circle class="cls-5" cx="369.5" cy="178.78" r="2.25"/><circle class="cls-5" cx="341" cy="158.9" r="2.25"/><circle class="cls-5" cx="422.64" cy="139.37" r="2.25"/><circle class="cls-5" cx="448.81" cy="154.99" r="2.25"/><circle class="cls-5" cx="495.71" cy="136.86" r="2.25"/><circle class="cls-5" cx="495.56" cy="163.99" r="2.25"/><circle class="cls-5" cx="462.13" cy="176.12" r="7.15"/></g></svg>